<svg width="87" height="28" viewBox="0 0 87 28" fill="none" xmlns="http://www.w3.org/2000/svg">
<path d="M7.07 19L6.132 16.116H2.562L1.624 19H0L3.514 8.962H5.194L8.694 19H7.07ZM4.802 11.986C4.774 11.874 4.72733 11.72 4.662 11.524C4.606 11.3187 4.55 11.1087 4.494 10.894C4.438 10.67 4.38667 10.4833 4.34 10.334C4.30267 10.5393 4.256 10.7447 4.2 10.95C4.144 11.1553 4.09267 11.3467 4.046 11.524C3.99933 11.7013 3.95733 11.8553 3.92 11.986L2.996 14.8H5.726L4.802 11.986ZM12.195 19.14C11.355 19.14 10.6737 18.8133 10.151 18.16C9.63765 17.5067 9.38098 16.536 9.38098 15.248C9.38098 13.9507 9.64232 12.9707 10.165 12.308C10.6877 11.6453 11.3737 11.314 12.223 11.314C12.587 11.314 12.8997 11.3653 13.161 11.468C13.4223 11.5613 13.651 11.692 13.847 11.86C14.043 12.028 14.2063 12.2147 14.337 12.42H14.421C14.4023 12.2893 14.379 12.1027 14.351 11.86C14.3323 11.608 14.323 11.384 14.323 11.188V8.36H15.835V19H14.645L14.379 17.992H14.323C14.1923 18.2067 14.029 18.4027 13.833 18.58C13.637 18.748 13.4037 18.8833 13.133 18.986C12.8717 19.0887 12.559 19.14 12.195 19.14ZM12.601 17.922C13.2543 17.922 13.7117 17.7213 13.973 17.32C14.2437 16.9093 14.379 16.298 14.379 15.486V15.262C14.379 14.3753 14.253 13.6987 14.001 13.232C13.749 12.7653 13.2777 12.532 12.587 12.532C12.0457 12.532 11.635 12.7793 11.355 13.274C11.075 13.7593 10.935 14.4267 10.935 15.276C10.935 16.1253 11.075 16.7787 11.355 17.236C11.635 17.6933 12.0503 17.922 12.601 17.922ZM20.3844 19.14C19.5444 19.14 18.8631 18.8133 18.3404 18.16C17.8271 17.5067 17.5704 16.536 17.5704 15.248C17.5704 13.9507 17.8318 12.9707 18.3544 12.308C18.8771 11.6453 19.5631 11.314 20.4124 11.314C20.7764 11.314 21.0891 11.3653 21.3504 11.468C21.6118 11.5613 21.8404 11.692 22.0364 11.86C22.2324 12.028 22.3958 12.2147 22.5264 12.42H22.6104C22.5918 12.2893 22.5684 12.1027 22.5404 11.86C22.5218 11.608 22.5124 11.384 22.5124 11.188V8.36H24.0244V19H22.8344L22.5684 17.992H22.5124C22.3818 18.2067 22.2184 18.4027 22.0224 18.58C21.8264 18.748 21.5931 18.8833 21.3224 18.986C21.0611 19.0887 20.7484 19.14 20.3844 19.14ZM20.7904 17.922C21.4438 17.922 21.9011 17.7213 22.1624 17.32C22.4331 16.9093 22.5684 16.298 22.5684 15.486V15.262C22.5684 14.3753 22.4424 13.6987 22.1904 13.232C21.9384 12.7653 21.4671 12.532 20.7764 12.532C20.2351 12.532 19.8244 12.7793 19.5444 13.274C19.2644 13.7593 19.1244 14.4267 19.1244 15.276C19.1244 16.1253 19.2644 16.7787 19.5444 17.236C19.8244 17.6933 20.2398 17.922 20.7904 17.922ZM37.6199 11.314C38.4225 11.314 39.0245 11.5333 39.4259 11.972C39.8365 12.4107 40.0419 13.1153 40.0419 14.086V19H38.5299V14.282C38.5299 13.7033 38.4225 13.2693 38.2079 12.98C38.0025 12.6813 37.6805 12.532 37.2419 12.532C36.6352 12.532 36.2012 12.742 35.9399 13.162C35.6879 13.5727 35.5619 14.17 35.5619 14.954V19H34.0359V14.282C34.0359 13.8993 33.9892 13.5773 33.8959 13.316C33.8025 13.0547 33.6625 12.8587 33.4759 12.728C33.2892 12.5973 33.0465 12.532 32.7479 12.532C32.3279 12.532 31.9965 12.6347 31.7539 12.84C31.5112 13.0453 31.3385 13.3487 31.2359 13.75C31.1332 14.142 31.0819 14.6227 31.0819 15.192V19H29.5699V11.454H30.7599L30.9839 12.462H31.0539C31.2032 12.2007 31.3805 11.986 31.5859 11.818C31.8005 11.65 32.0432 11.524 32.3139 11.44C32.5845 11.356 32.8645 11.314 33.1539 11.314C33.6859 11.314 34.1339 11.4167 34.4979 11.622C34.8619 11.818 35.1325 12.1213 35.3099 12.532H35.4079C35.6319 12.112 35.9445 11.804 36.3459 11.608C36.7472 11.412 37.1719 11.314 37.6199 11.314ZM48.4626 15.22C48.4626 15.8453 48.3833 16.4007 48.2246 16.886C48.066 17.3713 47.8373 17.782 47.5386 18.118C47.2493 18.454 46.8946 18.7107 46.4746 18.888C46.0546 19.056 45.5833 19.14 45.0606 19.14C44.5846 19.14 44.1413 19.056 43.7306 18.888C43.32 18.7107 42.9653 18.454 42.6666 18.118C42.368 17.782 42.1346 17.3713 41.9666 16.886C41.808 16.4007 41.7286 15.8407 41.7286 15.206C41.7286 14.3753 41.864 13.6707 42.1346 13.092C42.4053 12.5133 42.7926 12.0747 43.2966 11.776C43.81 11.468 44.4166 11.314 45.1166 11.314C45.77 11.314 46.3486 11.468 46.8526 11.776C47.3566 12.0747 47.7486 12.5133 48.0286 13.092C48.318 13.6707 48.4626 14.38 48.4626 15.22ZM43.2966 15.22C43.2966 15.78 43.3573 16.2653 43.4786 16.676C43.6093 17.0773 43.8053 17.3853 44.0666 17.6C44.3373 17.8147 44.678 17.922 45.0886 17.922C45.5086 17.922 45.8493 17.8147 46.1106 17.6C46.3813 17.3853 46.5773 17.0773 46.6986 16.676C46.8293 16.2653 46.8946 15.78 46.8946 15.22C46.8946 14.6413 46.8293 14.156 46.6986 13.764C46.568 13.372 46.372 13.0733 46.1106 12.868C45.8493 12.6533 45.504 12.546 45.0746 12.546C44.4493 12.546 43.9966 12.7793 43.7166 13.246C43.4366 13.7127 43.2966 14.3707 43.2966 15.22ZM53.785 11.314C53.9064 11.314 54.0417 11.3233 54.191 11.342C54.3404 11.3513 54.4664 11.3653 54.569 11.384L54.415 12.77C54.3124 12.742 54.1957 12.7187 54.065 12.7C53.9344 12.6813 53.8037 12.672 53.673 12.672C53.421 12.672 53.1784 12.728 52.945 12.84C52.7117 12.9427 52.5017 13.0967 52.315 13.302C52.1284 13.498 51.979 13.7407 51.867 14.03C51.755 14.3193 51.699 14.6507 51.699 15.024V19H50.187V11.454H51.377L51.573 12.798H51.657C51.797 12.5273 51.9697 12.28 52.175 12.056C52.3897 11.832 52.6324 11.6547 52.903 11.524C53.1737 11.384 53.4677 11.314 53.785 11.314ZM58.4434 11.314C59.0688 11.314 59.6101 11.454 60.0674 11.734C60.5248 12.0047 60.8748 12.3967 61.1174 12.91C61.3694 13.4233 61.4954 14.03 61.4954 14.73V15.542H56.7494C56.7681 16.3167 56.9548 16.9093 57.3094 17.32C57.6641 17.7307 58.1634 17.936 58.8074 17.936C59.2648 17.936 59.6708 17.894 60.0254 17.81C60.3894 17.7167 60.7581 17.5813 61.1314 17.404V18.636C60.7768 18.804 60.4128 18.93 60.0394 19.014C59.6754 19.098 59.2321 19.14 58.7094 19.14C58.0281 19.14 57.4214 18.9953 56.8894 18.706C56.3574 18.4167 55.9421 17.9873 55.6434 17.418C55.3448 16.8393 55.1954 16.13 55.1954 15.29C55.1954 14.4407 55.3308 13.722 55.6014 13.134C55.8721 12.546 56.2501 12.098 56.7354 11.79C57.2301 11.4727 57.7994 11.314 58.4434 11.314ZM58.4434 12.462C57.9674 12.462 57.5848 12.6347 57.2954 12.98C57.0061 13.3253 56.8381 13.8153 56.7914 14.45H59.9974C59.9974 14.058 59.9414 13.7127 59.8294 13.414C59.7174 13.1153 59.5448 12.882 59.3114 12.714C59.0874 12.546 58.7981 12.462 58.4434 12.462Z" fill="black"/>
<path d="M76.5 22.6207C71.5085 22.6207 67.4483 18.7538 67.4483 14C67.4483 9.2462 71.5085 5.3793 76.5 5.3793C81.4915 5.3793 85.5518 9.2462 85.5518 14C85.5518 18.7538 81.4915 22.6207 76.5 22.6207ZM76.5 6.75861C72.3073 6.75861 68.8966 10.0069 68.8966 14C68.8966 17.9931 72.3073 21.2414 76.5 21.2414C80.6928 21.2414 84.1035 17.9924 84.1035 14C84.1035 10.0076 80.6928 6.75861 76.5 6.75861Z" fill="black"/>
<path d="M76.5 18.8765C76.308 18.8765 76.1238 18.8039 75.988 18.6746C75.8522 18.5452 75.7759 18.3698 75.7759 18.1869V9.91103C75.7759 9.72812 75.8522 9.55271 75.988 9.42337C76.1238 9.29403 76.308 9.22137 76.5 9.22137C76.6921 9.22137 76.8763 9.29403 77.0121 9.42337C77.1479 9.55271 77.2242 9.72812 77.2242 9.91103V18.1869C77.2242 18.3698 77.1479 18.5452 77.0121 18.6746C76.8763 18.8039 76.6921 18.8765 76.5 18.8765Z" fill="black"/>
<path d="M80.8448 14.7386H72.1552C71.9631 14.7386 71.7789 14.666 71.6431 14.5366C71.5073 14.4073 71.431 14.2319 71.431 14.049C71.431 13.8661 71.5073 13.6906 71.6431 13.5613C71.7789 13.432 71.9631 13.3593 72.1552 13.3593H80.8448C81.0369 13.3593 81.2211 13.432 81.3569 13.5613C81.4927 13.6906 81.569 13.8661 81.569 14.049C81.569 14.2319 81.4927 14.4073 81.3569 14.5366C81.2211 14.666 81.0369 14.7386 80.8448 14.7386Z" fill="black"/>
</svg>
