<svg width="106" height="43" viewBox="0 0 106 43" fill="none" xmlns="http://www.w3.org/2000/svg">
<g clip-path="url(#clip0_13_69)">
<path d="M2.82418 32.3029C2.65854 32.3029 2.52466 32.1416 2.52466 31.9429V29.9465C2.52466 29.7935 2.60523 29.6571 2.72564 29.6067C2.78255 29.583 8.48276 27.1895 15.0306 24.2554C16.146 23.7559 16.8676 23.0436 17.6317 22.2896C19.1595 20.7819 20.7383 19.2227 25.4705 19.3955C28.1713 19.4941 29.606 20.0369 29.9849 21.1033C30.3919 22.2485 29.4179 23.5486 28.7068 24.4977C28.563 24.6899 28.4294 24.8673 28.3222 25.0253C26.9202 27.0851 26.2094 29.1489 26.2094 31.1598C26.2094 31.3584 26.0755 31.5197 25.9099 31.5197C25.7442 31.5197 25.6103 31.3584 25.6103 31.1598C25.6103 28.9787 26.3666 26.7612 27.8583 24.5693C27.9712 24.4037 28.1108 24.2169 28.2617 24.0157C28.8649 23.2106 29.6907 22.1082 29.4337 21.3855C29.2489 20.865 28.4079 20.2226 25.4522 20.1142C20.9399 19.9508 19.5202 21.356 18.0118 22.8449C17.2435 23.6033 16.4489 24.3875 15.24 24.9292C9.37713 27.557 4.193 29.751 3.1237 30.2017V31.9429C3.1237 32.142 2.98982 32.3029 2.82418 32.3029Z" fill="white"/>
<path d="M5.03621 28.6007C4.87058 28.6007 4.73669 28.4394 4.73669 28.2408L4.73699 26.074C4.72651 25.9132 4.74089 24.209 8.69428 22.0099C12.5629 19.8583 13.9817 18.8509 14.6638 18.3664C14.8024 18.2681 14.883 18.072 15.0139 17.734C15.3158 16.9534 15.772 15.7732 17.842 14.7226C20.3433 13.4535 23.7662 12.2428 25.8662 13.6799C27.0556 14.494 27.2778 18.1613 27.2991 18.5766C27.3093 18.7749 27.1838 18.9459 27.0188 18.9581C26.8489 18.9718 26.7114 18.8195 26.701 18.6212C26.6273 17.2017 26.255 14.7748 25.5694 14.3055C24.0963 13.2966 21.4348 13.681 18.0747 15.3856C16.2177 16.3278 15.8355 17.3158 15.5569 18.0371C15.4114 18.4132 15.2742 18.7688 14.9684 18.9858C14.278 19.476 12.8418 20.496 8.94588 22.6627C5.40343 24.6333 5.33604 26.0499 5.33574 26.064V28.24C5.33574 28.4394 5.20155 28.6007 5.03621 28.6007Z" fill="white"/>
<path d="M9.58969 21.2714C9.56213 21.2714 9.53397 21.2667 9.50642 21.257C9.34767 21.2019 9.25602 21.0021 9.30184 20.811L10.969 13.893C10.9876 13.8175 11.0256 13.7509 11.0783 13.7041C11.1906 13.6044 13.857 11.2667 16.4005 12.3216C16.4496 12.3422 16.4937 12.3774 16.5281 12.4246C16.8917 12.9223 17.4087 14.4401 17.4665 14.6114C17.5285 14.7957 17.4545 15.0056 17.3012 15.0801C17.1481 15.1549 16.9732 15.066 16.9112 14.8817C16.7734 14.4732 16.3808 13.3856 16.125 12.9702C14.1283 12.2093 11.955 13.856 11.515 14.2152L9.87723 21.0115C9.83949 21.1691 9.71998 21.2714 9.58969 21.2714Z" fill="white"/>
<path d="M11.1289 17.5851C11.0888 17.5851 11.0486 17.5657 11.0193 17.5276C10.963 17.4545 10.9666 17.3408 11.0268 17.2735C11.0975 17.1946 12.7961 15.3389 16.2906 14.9912C16.3646 14.9822 16.4454 15.0564 16.452 15.1557C16.4589 15.2547 16.3975 15.3418 16.3151 15.3501C12.9314 15.6869 11.2472 17.5189 11.2305 17.5373C11.202 17.5693 11.1655 17.5851 11.1289 17.5851Z" fill="white"/>
<path d="M11.6246 15.3502C11.5739 15.3502 11.5242 15.3193 11.4961 15.2628C11.4532 15.1775 11.4766 15.067 11.5476 15.0159C11.6395 14.9497 11.7333 14.878 11.8315 14.8035C12.5887 14.2277 13.6257 13.4387 15.8071 13.4387C15.8898 13.4387 15.9569 13.5193 15.9569 13.6187C15.9569 13.718 15.8898 13.7986 15.8071 13.7986C13.7125 13.7986 12.7583 14.5246 11.9915 15.1077C11.8914 15.1836 11.7953 15.257 11.7012 15.3247C11.6776 15.342 11.6509 15.3502 11.6246 15.3502Z" fill="white"/>
<path d="M17.6697 18.0861C17.6188 18.0861 17.5694 18.0547 17.5412 17.9986C17.4984 17.9133 17.5218 17.8028 17.5928 17.7517C17.608 17.7409 19.132 16.6536 21.0217 15.9946C23.5509 15.1135 25.5882 15.3939 26.9133 16.8069C26.975 16.8728 26.981 16.9869 26.9259 17.061C26.8705 17.1352 26.7764 17.1416 26.7144 17.0761C23.6895 13.8509 17.806 18.018 17.7467 18.0605C17.7227 18.0778 17.6961 18.0861 17.6697 18.0861Z" fill="white"/>
<path d="M17.6697 19.6266C17.6188 19.6266 17.5694 19.5953 17.5412 19.5392C17.4984 19.4539 17.5218 19.3434 17.5928 19.2923C17.608 19.2815 19.132 18.1942 21.0217 17.5352C23.5509 16.6537 25.5882 16.9348 26.9133 18.3475C26.975 18.4134 26.981 18.5275 26.9259 18.6016C26.8705 18.6761 26.7764 18.6822 26.7144 18.6167C23.6895 15.3915 17.806 19.5586 17.7467 19.6011C17.7227 19.6184 17.6961 19.6266 17.6697 19.6266Z" fill="white"/>
<path d="M27.5321 33.1999C27.0523 33.1999 26.8019 32.9918 26.5809 32.8079C26.3691 32.6319 26.1861 32.48 25.7997 32.48C25.4136 32.48 25.2312 32.6319 25.0195 32.8079C24.7987 32.9915 24.5483 33.1999 24.0688 33.1999C23.5895 33.1999 23.3394 32.9915 23.119 32.8079C22.9075 32.6319 22.7251 32.48 22.339 32.48C21.9529 32.48 21.7705 32.6319 21.5591 32.8079C21.3386 32.9915 21.0882 33.1999 20.6087 33.1999C20.1295 33.1999 19.8791 32.9915 19.6586 32.8079C19.4471 32.6319 19.2644 32.48 18.8786 32.48C18.4929 32.48 18.3105 32.6319 18.099 32.8079C17.8782 32.9915 17.6278 33.1999 17.1486 33.1999C16.6691 33.1999 16.4187 32.9915 16.1979 32.8079C15.9868 32.6319 15.8041 32.48 15.4183 32.48C15.0325 32.48 14.8504 32.6319 14.6389 32.8079C14.4182 32.9915 14.1681 33.1999 13.6888 33.1999C13.2096 33.1999 12.9595 32.9915 12.739 32.8079C12.5279 32.6319 12.3458 32.48 11.9603 32.48C11.5745 32.48 11.3918 32.6319 11.1803 32.8079C10.9599 32.9915 10.7095 33.1999 10.2302 33.1999C9.75071 33.1999 9.50061 32.9915 9.27986 32.8079C9.06869 32.6323 8.88629 32.48 8.5005 32.48C8.11472 32.48 7.93231 32.6319 7.72084 32.8079C7.5001 32.9915 7.2497 33.1999 6.77046 33.1999C6.29122 33.1999 6.04082 32.9915 5.82008 32.8079C5.60891 32.6319 5.4265 32.48 5.04042 32.48C4.65433 32.48 4.47222 32.6319 4.26076 32.8079C4.04001 32.9915 3.78961 33.1999 3.31038 33.1999C2.83114 33.1999 2.58224 32.9915 2.36149 32.8079C2.15003 32.6319 1.96762 32.48 1.58213 32.48C1.49947 32.48 1.43237 32.3994 1.43237 32.3001C1.43237 32.2007 1.49947 32.1201 1.58213 32.1201C2.06137 32.1201 2.31147 32.3285 2.53222 32.5121C2.74338 32.6881 2.92579 32.84 3.31158 32.84C3.69736 32.84 3.87977 32.6881 4.09123 32.5121C4.31198 32.3285 4.56238 32.1201 5.04162 32.1201C5.52085 32.1201 5.77125 32.3285 5.992 32.5121C6.20316 32.6881 6.38557 32.84 6.77166 32.84C7.15774 32.84 7.33985 32.6881 7.55131 32.5121C7.77206 32.3285 8.02246 32.1201 8.5017 32.1201C8.98093 32.1201 9.23104 32.3285 9.45148 32.5121C9.66295 32.6881 9.84536 32.84 10.2314 32.84C10.6169 32.84 10.7996 32.6881 11.0111 32.5121C11.2318 32.3285 11.4822 32.1201 11.9618 32.1201C12.4407 32.1201 12.6908 32.3285 12.9113 32.5121C13.1224 32.6881 13.3045 32.84 13.6903 32.84C14.0761 32.84 14.2582 32.6881 14.4697 32.5121C14.6904 32.3285 14.9405 32.1201 15.4198 32.1201C15.899 32.1201 16.1494 32.3285 16.3699 32.5121C16.5813 32.6881 16.764 32.84 17.1498 32.84C17.5356 32.84 17.718 32.6881 17.9295 32.5121C18.1502 32.3285 18.4006 32.1201 18.8798 32.1201C19.3594 32.1201 19.6098 32.3285 19.8305 32.5121C20.0417 32.6881 20.2244 32.84 20.6102 32.84C20.996 32.84 21.1787 32.6881 21.3901 32.5121C21.6106 32.3285 21.861 32.1201 22.3405 32.1201C22.8201 32.1201 23.0702 32.3285 23.2909 32.5121C23.5021 32.6877 23.6845 32.84 24.0703 32.84C24.4564 32.84 24.6388 32.6881 24.8505 32.5121C25.0713 32.3285 25.3217 32.1201 25.8012 32.1201C26.2813 32.1201 26.5317 32.3285 26.7528 32.5121C26.9646 32.6881 27.1473 32.84 27.5336 32.84C27.92 32.84 28.1027 32.6881 28.3145 32.5121C28.5352 32.3285 28.7859 32.1201 29.2658 32.1201C29.3485 32.1201 29.4155 32.2007 29.4155 32.3001C29.4155 32.3994 29.3485 32.48 29.2658 32.48C28.8794 32.48 28.6967 32.6319 28.4849 32.8079C28.2624 32.9915 28.0117 33.1999 27.5321 33.1999Z" fill="white"/>
<path d="M6.91479 27.1016C6.53469 27.1016 6.22559 26.6985 6.22559 26.2029C6.22559 25.7077 6.53469 25.3042 6.91479 25.3042C7.29488 25.3042 7.60399 25.7073 7.60399 26.2029C7.60369 26.6985 7.29458 27.1016 6.91479 27.1016ZM6.91479 25.6645C6.70003 25.6645 6.52511 25.906 6.52511 26.2033C6.52511 26.5006 6.70003 26.7421 6.91479 26.7421C7.12954 26.7421 7.30447 26.5006 7.30447 26.2033C7.30417 25.906 7.12954 25.6645 6.91479 25.6645Z" fill="white"/>
<path d="M8.89306 25.9986C8.51296 25.9986 8.20386 25.5955 8.20386 25.0999C8.20386 24.6046 8.51296 24.2012 8.89306 24.2012C9.27315 24.2012 9.58226 24.6043 9.58226 25.0999C9.58226 25.5955 9.27315 25.9986 8.89306 25.9986ZM8.89306 24.5614C8.6783 24.5614 8.50338 24.803 8.50338 25.1002C8.50338 25.3975 8.6783 25.639 8.89306 25.639C9.10782 25.639 9.28274 25.3975 9.28274 25.1002C9.28274 24.803 9.10782 24.5614 8.89306 24.5614Z" fill="white"/>
<path d="M10.8716 24.8953C10.4915 24.8953 10.1824 24.4922 10.1824 23.9966C10.1824 23.5014 10.4915 23.0979 10.8716 23.0979C11.2517 23.0979 11.5608 23.501 11.5608 23.9966C11.5605 24.4922 11.2514 24.8953 10.8716 24.8953ZM10.8716 23.4582C10.6568 23.4582 10.4819 23.6997 10.4819 23.997C10.4819 24.2943 10.6568 24.5358 10.8716 24.5358C11.0863 24.5358 11.2613 24.2943 11.2613 23.997C11.261 23.6997 11.086 23.4582 10.8716 23.4582Z" fill="white"/>
<path d="M12.8498 23.7923C12.4698 23.7923 12.1606 23.3892 12.1606 22.8936C12.1606 22.3983 12.4698 21.9949 12.8498 21.9949C13.2299 21.9949 13.539 22.398 13.539 22.8936C13.539 23.3892 13.2299 23.7923 12.8498 23.7923ZM12.8498 22.3552C12.6351 22.3552 12.4602 22.5967 12.4602 22.8939C12.4602 23.1912 12.6351 23.4327 12.8498 23.4327C13.0646 23.4327 13.2395 23.1912 13.2395 22.8939C13.2395 22.5967 13.0646 22.3552 12.8498 22.3552Z" fill="white"/>
<path d="M34.3888 19.815C34.3011 19.007 34.7689 17.9178 35.8214 16.8638C36.757 15.9153 37.488 15.7396 37.985 15.7396C38.6575 15.7396 38.599 16.6179 38.3066 16.4774C37.9265 16.3017 37.1956 16.4423 36.26 17.2854C35.3244 18.1286 34.9735 18.9718 35.0028 19.5691C35.032 20.3069 35.9384 20.6231 36.9032 20.4825C39.0668 20.2015 43.8325 17.5665 45.9084 16.2315C46.0546 16.1261 46.6686 16.1612 46.2008 16.5477C44.0079 18.234 39.0668 20.6933 37.0786 21.0447C35.7045 21.2906 34.535 21.0095 34.3888 19.815ZM48.7795 20.9393C47.2592 21.0798 46.5867 19.534 47.2007 17.9178C47.7854 16.3017 48.9549 15.6693 49.5689 15.8099C50.1244 15.9153 50.2999 16.4774 50.066 17.2854C49.7151 18.3746 48.6333 19.1475 47.5808 19.5691C47.6977 20.061 48.0778 20.3069 48.6041 20.2718C49.949 20.1312 51.8202 19.007 57.1122 16.2315C57.4923 16.0207 57.58 16.4774 57.3461 16.5828C52.902 18.9367 50.3876 20.7987 48.7795 20.9393ZM47.727 18.1638C47.5808 18.5502 47.5223 18.8664 47.5223 19.1475C48.3702 18.7962 49.3935 17.8124 49.6274 17.0395C49.7151 16.7233 49.6859 16.4071 49.4812 16.3369C49.1596 16.2315 48.224 16.6882 47.727 18.1638ZM59.6617 16.4071C59.7202 16.1261 59.9249 16.1261 60.0711 16.0909C60.2465 16.0909 60.3342 16.1612 60.305 16.4774C60.2465 17.1449 59.8664 18.3746 59.8079 18.6556C59.7787 18.7259 59.8079 18.7962 59.8956 18.7962C59.9834 18.7962 60.8312 18.3043 61.416 17.953C62.2639 17.426 62.8486 17.0395 63.2872 17.0395C63.7258 17.0395 64.0766 17.4611 64.0766 18.1638C64.0181 19.1475 64.0474 19.7448 64.3105 19.7799C64.8368 19.9204 66.7372 19.2178 68.1991 18.48L72.7017 16.2315C72.9648 16.0909 73.111 16.5828 72.7894 16.7585C71.5907 17.4962 69.9241 18.3043 68.3745 19.1124C66.8542 19.8853 64.866 20.6582 63.9889 20.4474C63.3749 20.3069 63.2287 19.5691 63.2872 18.5854C63.3164 18.0584 63.2872 17.8476 63.1995 17.7773C63.0533 17.6719 62.7317 17.8124 62.1762 18.1638C61.7084 18.4448 60.1003 19.4286 59.8372 19.4286C59.6617 19.4286 59.1355 19.1826 59.1355 18.9016C59.1355 18.7259 59.5156 17.5314 59.6617 16.4071ZM74.0232 29.6171C73.6431 29.7225 73.38 28.3172 73.4092 25.7174C73.4677 23.5743 73.9063 16.1963 74.7834 10.5399C74.9881 9.23998 75.1927 8.08059 75.3974 7.0266C69.6961 7.0266 69.1698 7.06174 69.0528 6.53474C68.9944 6.21854 69.813 5.79695 70.0469 5.97261C70.3393 6.18341 70.544 6.28881 71.3918 6.28881L75.5436 6.32394C76.4792 1.82692 77.3563 0 77.7656 0C77.9995 0 78.175 0.843192 78.1165 1.15939C78.0288 1.58099 77.9118 0.983724 77.5902 1.82692C77.5317 1.93232 76.9178 3.86463 76.3622 6.32394C77.3856 6.32394 77.7656 6.42934 80.6602 6.42934C83.35 6.42934 84.0517 6.25368 84.1394 6.64014C84.1979 7.06174 82.7653 7.0266 80.5724 7.0266H76.1868C75.9237 8.29139 75.6605 9.62645 75.4851 10.9264C75.222 12.6479 74.7834 15.7045 74.4033 19.3934C74.1694 21.396 73.877 26.3849 74.0525 28.0713C74.1987 29.4063 74.4326 29.5469 74.0232 29.6171ZM81.8063 20.9393C80.2859 21.0798 79.6135 19.534 80.2274 17.9178C80.8122 16.3017 81.9817 15.6693 82.5957 15.8099C83.1512 15.9153 83.3266 16.4774 83.0927 17.2854C82.7419 18.3746 81.6601 19.1475 80.6075 19.5691C80.7245 20.061 81.1046 20.3069 81.6308 20.2718C82.9758 20.1312 84.847 19.007 90.139 16.2315C90.5191 16.0207 90.6068 16.4774 90.3729 16.5828C85.9288 18.9367 83.4143 20.7987 81.8063 20.9393ZM80.7537 18.1638C80.6075 18.5502 80.5491 18.8664 80.5491 19.1475C81.3969 18.7962 82.4203 17.8124 82.6542 17.0395C82.7419 16.7233 82.7126 16.4071 82.508 16.3369C82.1864 16.2315 81.2508 16.6882 80.7537 18.1638ZM92.6885 16.4071C92.747 16.1261 92.9516 16.1261 93.0978 16.0909C93.2733 16.0909 93.361 16.1612 93.3317 16.4774C93.2733 17.1449 92.8932 18.3746 92.8347 18.6556C92.8054 18.7259 92.8347 18.7962 92.9224 18.7962C93.0101 18.7962 93.858 18.3043 94.4427 17.953C95.2906 17.426 95.8754 17.0395 96.3139 17.0395C96.7525 17.0395 97.1034 17.4611 97.1034 18.1638C97.0449 19.1475 97.0741 19.7448 97.3373 19.7799C97.8635 19.9204 99.764 19.2178 101.226 18.48L105.728 16.2315C105.992 16.0909 106.138 16.5828 105.816 16.7585C104.617 17.4962 102.951 18.3043 101.401 19.1124C99.8809 19.8853 97.8928 20.6582 97.0157 20.4474C96.4017 20.3069 96.2555 19.5691 96.3139 18.5854C96.3432 18.0584 96.314 17.8476 96.2262 17.7773C96.0801 17.6719 95.7584 17.8124 95.2029 18.1638C94.7351 18.4448 93.1271 19.4286 92.8639 19.4286C92.6885 19.4286 92.1622 19.1826 92.1622 18.9016C92.1622 18.7259 92.5423 17.5314 92.6885 16.4071Z" fill="white"/>
<path d="M36.5684 34.7964C37.5852 34.7964 38.669 35.2663 38.669 36.6492C38.669 36.9715 38.4902 37.1192 38.3003 37.1192C38.1103 37.1192 37.9092 36.958 37.9092 36.6492C37.9092 36.5418 37.8534 35.6691 36.5684 35.6691C35.5516 35.6691 35.1047 36.1525 35.1047 37.3071V40.5429C35.1047 41.711 35.6522 42.0735 36.5684 42.0735C37.4958 42.0735 38.0098 41.617 38.0098 40.5295C38.0098 40.2207 38.1997 40.073 38.3785 40.073C38.5685 40.073 38.7472 40.2207 38.7472 40.5295C38.7472 42.342 37.9092 42.9462 36.5684 42.9462C35.1159 42.9462 34.3784 42.3018 34.3784 40.5429V37.3071C34.3784 35.4006 35.1717 34.7964 36.5684 34.7964ZM45.4915 40.5563V42.4763C45.4915 42.7717 45.3016 42.9059 45.1228 42.9059C44.9328 42.9059 44.7541 42.7717 44.7541 42.4763V35.2663C44.7541 34.9978 44.877 34.8232 45.1228 34.8232H46.6312C47.0558 34.8232 48.3966 34.9709 48.3966 36.7835V38.4618C48.3966 39.4822 48.0837 40.1267 47.3686 40.4086L48.1284 42.248C48.2849 42.6106 48.0502 42.9059 47.8044 42.9059C47.6703 42.9059 47.5027 42.7985 47.4133 42.5703L46.5977 40.5563H45.4915ZM47.6591 38.4618V36.7835C47.6591 36.4613 47.5586 35.7228 46.6312 35.7228H45.4915V39.6567H46.5306C47.0781 39.6567 47.6591 39.5091 47.6591 38.4618ZM54.4034 40.5295V35.2529C54.4034 34.9709 54.5934 34.8232 54.7721 34.8232C54.9621 34.8232 55.1409 34.9709 55.1409 35.2529V40.5295C55.1409 41.4962 55.6884 42.0735 56.4482 42.0735H56.7275C57.5096 42.0735 58.046 41.4156 58.046 40.5295V35.2529C58.046 34.9709 58.2247 34.8232 58.4147 34.8232C58.5935 34.8232 58.7834 34.9709 58.7834 35.2529V40.5295C58.7834 41.9124 57.9677 42.9731 56.7275 42.9731H56.4482C55.2079 42.9731 54.4034 41.9392 54.4034 40.5295ZM64.8461 42.4897V35.2529C64.8461 34.9709 65.0249 34.8232 65.2037 34.8232C65.3824 34.8232 65.5724 34.9709 65.5724 35.2529V42.4897C65.5724 43.0671 64.8461 43.0671 64.8461 42.4897ZM71.5569 41.7513C71.311 41.2008 71.9368 40.798 72.2273 41.3485C72.3725 41.6304 72.8083 42.1138 73.501 42.1138C73.7915 42.1138 74.5178 41.8587 74.6184 40.8651C74.6854 40.2609 74.205 39.6702 73.3781 39.1734C72.2161 38.5155 71.3334 37.9382 71.3334 36.7835C71.3334 35.414 72.2943 34.7695 73.3223 34.7695C74.2497 34.7695 74.7636 35.4543 74.9424 35.8034C75.1994 36.3001 74.6407 36.7835 74.3279 36.3001C74.1714 36.0585 73.8698 35.6557 73.3223 35.6557C72.7077 35.6557 72.0708 36.0048 72.0708 36.7835C72.0708 37.4011 72.6407 37.7502 73.4899 38.2335C74.4843 38.8243 75.5234 39.4016 75.367 40.9725C75.2441 42.2078 74.4619 42.9999 73.501 42.9999C72.7748 42.9999 71.8809 42.53 71.5569 41.7513ZM81.1839 42.436V35.2932C81.1839 34.9844 81.385 34.8232 81.5749 34.8232H84.1448C84.3906 34.8232 84.5136 35.0381 84.5136 35.2663C84.5136 35.4946 84.3906 35.7228 84.1448 35.7228H81.9325V38.3275H83.6867C83.9437 38.3275 84.0666 38.5424 84.0666 38.7706C84.0666 38.9989 83.9325 39.2405 83.6867 39.2405H81.9325V42.0198H84.1448C84.3795 42.0198 84.5024 42.248 84.5024 42.4629C84.5024 42.6911 84.3795 42.9059 84.1448 42.9059H81.5749C81.385 42.9059 81.1839 42.8254 81.1839 42.436Z" fill="white"/>
</g>
<defs>
<clipPath id="clip0_13_69">
<rect width="106" height="43" fill="white"/>
</clipPath>
</defs>
</svg>
