<svg width="14" height="17" viewBox="0 0 14 17" fill="none" xmlns="http://www.w3.org/2000/svg">
<path id="Vector" d="M13.0275 6.07236L12.7334 14.3598C12.7084 15.0696 12.3873 15.7423 11.8383 16.2353C11.2893 16.7282 10.5556 17.0025 9.79302 17H4.20625C3.44411 17.0025 2.71087 16.7286 2.16196 16.2362C1.61306 15.7439 1.29164 15.0718 1.26584 14.3625L0.971804 6.07236C0.96537 5.89081 1.03665 5.71432 1.16996 5.58171C1.30327 5.44911 1.48769 5.37124 1.68265 5.36525C1.87761 5.35926 2.06714 5.42563 2.20955 5.54977C2.35195 5.6739 2.43557 5.84563 2.44201 6.02718L2.73605 14.3167C2.75069 14.6706 2.91202 15.0054 3.18617 15.2508C3.46031 15.4963 3.82594 15.6333 4.20625 15.633H9.79302C10.1738 15.6332 10.5399 15.4959 10.8141 15.2498C11.0883 15.0038 11.2493 14.6683 11.2632 14.3139L11.5573 6.02718C11.5637 5.84563 11.6473 5.6739 11.7897 5.54977C11.9321 5.42563 12.1217 5.35926 12.3166 5.36525C12.5116 5.37124 12.696 5.44911 12.8293 5.58171C12.9626 5.71432 13.0339 5.89081 13.0275 6.07236ZM14 3.31444C14 3.49598 13.9226 3.67009 13.7847 3.79846C13.6468 3.92684 13.4599 3.99895 13.2649 3.99895H0.735101C0.54014 3.99895 0.353164 3.92684 0.215306 3.79846C0.0774477 3.67009 0 3.49598 0 3.31444C0 3.13289 0.0774477 2.95878 0.215306 2.83041C0.353164 2.70204 0.54014 2.62992 0.735101 2.62992H3.01391C3.24683 2.6305 3.47165 2.55037 3.64462 2.40512C3.81759 2.25987 3.92633 2.05989 3.9497 1.8441C4.00394 1.33789 4.25863 0.868611 4.66414 0.527706C5.06965 0.186801 5.59692 -0.00131654 6.14324 6.93613e-06H7.85603C8.40234 -0.00131654 8.92962 0.186801 9.33512 0.527706C9.74063 0.868611 9.99532 1.33789 10.0496 1.8441C10.0729 2.05989 10.1817 2.25987 10.3546 2.40512C10.5276 2.55037 10.7524 2.6305 10.9854 2.62992H13.2642C13.4591 2.62992 13.6461 2.70204 13.784 2.83041C13.9218 2.95878 13.9993 3.13289 13.9993 3.31444H14ZM5.22583 2.62992H8.7749C8.6783 2.42439 8.61513 2.2066 8.58745 1.98374C8.56924 1.81501 8.48442 1.65858 8.34942 1.54476C8.21443 1.43095 8.03887 1.36784 7.85676 1.36767H6.14397C5.96187 1.36784 5.78631 1.43095 5.65131 1.54476C5.51631 1.65858 5.43149 1.81501 5.41328 1.98374C5.38537 2.20664 5.32268 2.42443 5.22583 2.62992ZM5.96608 13.001V7.17237C5.96608 6.99083 5.88863 6.81672 5.75077 6.68835C5.61292 6.55998 5.42594 6.48786 5.23098 6.48786C5.03602 6.48786 4.84904 6.55998 4.71118 6.68835C4.57333 6.81672 4.49588 6.99083 4.49588 7.17237V13.0038C4.49588 13.1853 4.57333 13.3594 4.71118 13.4878C4.84904 13.6162 5.03602 13.6883 5.23098 13.6883C5.42594 13.6883 5.61292 13.6162 5.75077 13.4878C5.88863 13.3594 5.96608 13.1853 5.96608 13.0038V13.001ZM9.50486 13.001V7.17237C9.50486 6.99083 9.42741 6.81672 9.28955 6.68835C9.15169 6.55998 8.96472 6.48786 8.76976 6.48786C8.57479 6.48786 8.38782 6.55998 8.24996 6.68835C8.1121 6.81672 8.03465 6.99083 8.03465 7.17237V13.0038C8.03465 13.1853 8.1121 13.3594 8.24996 13.4878C8.38782 13.6162 8.57479 13.6883 8.76976 13.6883C8.96472 13.6883 9.15169 13.6162 9.28955 13.4878C9.42741 13.3594 9.50486 13.1853 9.50486 13.0038V13.001Z" fill="black"/>
</svg>
