<svg width="106" height="43" viewBox="0 0 106 43" fill="none" xmlns="http://www.w3.org/2000/svg">
<g clip-path="url(#clip0_13_18)">
<path d="M2.8243 32.3029C2.65867 32.3029 2.52478 32.1416 2.52478 31.9429V29.9465C2.52478 29.7935 2.60535 29.6571 2.72576 29.6067C2.78267 29.583 8.48288 27.1895 15.0307 24.2554C16.1462 23.7559 16.8677 23.0436 17.6318 22.2896C19.1597 20.7819 20.7384 19.2227 25.4706 19.3955C28.1714 19.4941 29.6061 20.0369 29.985 21.1033C30.392 22.2485 29.418 23.5486 28.7069 24.4977C28.5632 24.6899 28.4296 24.8673 28.3223 25.0253C26.9203 27.0851 26.2095 29.1489 26.2095 31.1598C26.2095 31.3584 26.0756 31.5197 25.91 31.5197C25.7443 31.5197 25.6105 31.3584 25.6105 31.1598C25.6105 28.9787 26.3668 26.7612 27.8584 24.5693C27.9713 24.4037 28.1109 24.2169 28.2618 24.0157C28.8651 23.2106 29.6909 22.1082 29.4339 21.3855C29.2491 20.865 28.408 20.2226 25.4523 20.1142C20.94 19.9508 19.5203 21.356 18.0119 22.8449C17.2436 23.6033 16.449 24.3875 15.2401 24.9292C9.37725 27.557 4.19312 29.751 3.12382 30.2017V31.9429C3.12382 32.142 2.98994 32.3029 2.8243 32.3029Z" fill="black"/>
<path d="M5.03621 28.6007C4.87058 28.6007 4.73669 28.4394 4.73669 28.2408L4.73699 26.074C4.72651 25.9132 4.74089 24.209 8.69428 22.0099C12.5629 19.8583 13.9817 18.8509 14.6638 18.3664C14.8024 18.2681 14.883 18.072 15.0139 17.734C15.3158 16.9534 15.772 15.7732 17.842 14.7226C20.3433 13.4535 23.7662 12.2428 25.8662 13.6799C27.0556 14.494 27.2778 18.1613 27.2991 18.5766C27.3093 18.7749 27.1838 18.9459 27.0188 18.9581C26.8489 18.9718 26.7114 18.8195 26.701 18.6212C26.6273 17.2017 26.255 14.7748 25.5694 14.3055C24.0963 13.2966 21.4348 13.681 18.0747 15.3856C16.2177 16.3278 15.8355 17.3158 15.5569 18.0371C15.4114 18.4132 15.2742 18.7688 14.9684 18.9858C14.278 19.476 12.8418 20.496 8.94588 22.6627C5.40343 24.6333 5.33604 26.0499 5.33574 26.064V28.24C5.33574 28.4394 5.20155 28.6007 5.03621 28.6007Z" fill="black"/>
<path d="M9.58956 21.2714C9.56201 21.2714 9.53385 21.2667 9.5063 21.257C9.34755 21.2019 9.2559 21.0021 9.30172 20.811L10.9689 13.893C10.9874 13.8175 11.0255 13.7509 11.0782 13.7041C11.1905 13.6044 13.8569 11.2667 16.4004 12.3216C16.4495 12.3422 16.4936 12.3774 16.528 12.4246C16.8916 12.9223 17.4086 14.4401 17.4664 14.6114C17.5284 14.7957 17.4544 15.0056 17.3011 15.0801C17.148 15.1549 16.9731 15.066 16.9111 14.8817C16.7733 14.4732 16.3806 13.3856 16.1248 12.9702C14.1282 12.2093 11.9549 13.856 11.5149 14.2152L9.8771 21.0115C9.83936 21.1691 9.71986 21.2714 9.58956 21.2714Z" fill="black"/>
<path d="M11.1288 17.585C11.0887 17.585 11.0485 17.5656 11.0192 17.5274C10.9629 17.4544 10.9665 17.3406 11.0267 17.2733C11.0973 17.1945 12.7959 15.3388 16.2905 14.9911C16.3644 14.9821 16.4453 15.0562 16.4519 15.1556C16.4588 15.2546 16.3974 15.3417 16.315 15.3499C12.9313 15.6868 11.2471 17.5188 11.2303 17.5372C11.2019 17.5692 11.1653 17.585 11.1288 17.585Z" fill="black"/>
<path d="M11.6246 15.3504C11.5739 15.3504 11.5242 15.3194 11.4961 15.2629C11.4532 15.1776 11.4766 15.0671 11.5476 15.016C11.6395 14.9498 11.7333 14.8782 11.8315 14.8037C12.5887 14.2278 13.6257 13.4388 15.8071 13.4388C15.8898 13.4388 15.9569 13.5195 15.9569 13.6188C15.9569 13.7181 15.8898 13.7988 15.8071 13.7988C13.7125 13.7988 12.7583 14.5247 11.9915 15.1078C11.8914 15.1837 11.7953 15.2571 11.7012 15.3248C11.6776 15.3421 11.6509 15.3504 11.6246 15.3504Z" fill="black"/>
<path d="M17.6697 18.0861C17.6188 18.0861 17.5694 18.0547 17.5412 17.9986C17.4984 17.9133 17.5218 17.8028 17.5928 17.7517C17.608 17.7409 19.132 16.6536 21.0217 15.9946C23.5509 15.1135 25.5882 15.3939 26.9133 16.8069C26.975 16.8728 26.981 16.9869 26.9259 17.061C26.8705 17.1352 26.7764 17.1416 26.7144 17.0761C23.6895 13.8509 17.806 18.018 17.7467 18.0605C17.7227 18.0778 17.6961 18.0861 17.6697 18.0861Z" fill="black"/>
<path d="M17.6697 19.6265C17.6188 19.6265 17.5694 19.5952 17.5412 19.5391C17.4984 19.4538 17.5218 19.3433 17.5928 19.2922C17.608 19.2814 19.132 18.194 21.0217 17.535C23.5509 16.6536 25.5882 16.9347 26.9133 18.3474C26.975 18.4132 26.981 18.5273 26.9259 18.6015C26.8705 18.676 26.7764 18.6821 26.7144 18.6166C23.6895 15.3914 17.806 19.5585 17.7467 19.601C17.7227 19.6182 17.6961 19.6265 17.6697 19.6265Z" fill="black"/>
<path d="M27.5321 33.1997C27.0523 33.1997 26.8019 32.9917 26.5809 32.8078C26.3691 32.6318 26.1861 32.4799 25.7997 32.4799C25.4136 32.4799 25.2312 32.6318 25.0195 32.8078C24.7987 32.9914 24.5483 33.1997 24.0688 33.1997C23.5895 33.1997 23.3394 32.9914 23.119 32.8078C22.9075 32.6318 22.7251 32.4799 22.339 32.4799C21.9529 32.4799 21.7705 32.6318 21.5591 32.8078C21.3386 32.9914 21.0882 33.1997 20.6087 33.1997C20.1295 33.1997 19.8791 32.9914 19.6586 32.8078C19.4471 32.6318 19.2644 32.4799 18.8786 32.4799C18.4929 32.4799 18.3105 32.6318 18.099 32.8078C17.8782 32.9914 17.6278 33.1997 17.1486 33.1997C16.6691 33.1997 16.4187 32.9914 16.1979 32.8078C15.9868 32.6318 15.8041 32.4799 15.4183 32.4799C15.0325 32.4799 14.8504 32.6318 14.6389 32.8078C14.4182 32.9914 14.1681 33.1997 13.6888 33.1997C13.2096 33.1997 12.9595 32.9914 12.739 32.8078C12.5279 32.6318 12.3458 32.4799 11.9603 32.4799C11.5745 32.4799 11.3918 32.6318 11.1803 32.8078C10.9599 32.9914 10.7095 33.1997 10.2302 33.1997C9.75071 33.1997 9.50061 32.9914 9.27986 32.8078C9.06869 32.6322 8.88629 32.4799 8.5005 32.4799C8.11472 32.4799 7.93231 32.6318 7.72084 32.8078C7.5001 32.9914 7.2497 33.1997 6.77046 33.1997C6.29122 33.1997 6.04082 32.9914 5.82008 32.8078C5.60891 32.6318 5.4265 32.4799 5.04042 32.4799C4.65433 32.4799 4.47222 32.6318 4.26076 32.8078C4.04001 32.9914 3.78961 33.1997 3.31038 33.1997C2.83114 33.1997 2.58224 32.9914 2.36149 32.8078C2.15003 32.6318 1.96762 32.4799 1.58213 32.4799C1.49947 32.4799 1.43237 32.3993 1.43237 32.3C1.43237 32.2006 1.49947 32.12 1.58213 32.12C2.06137 32.12 2.31147 32.3284 2.53222 32.5119C2.74338 32.6879 2.92579 32.8398 3.31158 32.8398C3.69736 32.8398 3.87977 32.6879 4.09123 32.5119C4.31198 32.3284 4.56238 32.12 5.04162 32.12C5.52085 32.12 5.77125 32.3284 5.992 32.5119C6.20316 32.6879 6.38557 32.8398 6.77166 32.8398C7.15774 32.8398 7.33985 32.6879 7.55131 32.5119C7.77206 32.3284 8.02246 32.12 8.5017 32.12C8.98093 32.12 9.23104 32.3284 9.45148 32.5119C9.66295 32.6879 9.84536 32.8398 10.2314 32.8398C10.6169 32.8398 10.7996 32.6879 11.0111 32.5119C11.2318 32.3284 11.4822 32.12 11.9618 32.12C12.4407 32.12 12.6908 32.3284 12.9113 32.5119C13.1224 32.6879 13.3045 32.8398 13.6903 32.8398C14.0761 32.8398 14.2582 32.6879 14.4697 32.5119C14.6904 32.3284 14.9405 32.12 15.4198 32.12C15.899 32.12 16.1494 32.3284 16.3699 32.5119C16.5813 32.6879 16.764 32.8398 17.1498 32.8398C17.5356 32.8398 17.718 32.6879 17.9295 32.5119C18.1502 32.3284 18.4006 32.12 18.8798 32.12C19.3594 32.12 19.6098 32.3284 19.8305 32.5119C20.0417 32.6879 20.2244 32.8398 20.6102 32.8398C20.996 32.8398 21.1787 32.6879 21.3901 32.5119C21.6106 32.3284 21.861 32.12 22.3405 32.12C22.8201 32.12 23.0702 32.3284 23.2909 32.5119C23.5021 32.6876 23.6845 32.8398 24.0703 32.8398C24.4564 32.8398 24.6388 32.6879 24.8505 32.5119C25.0713 32.3284 25.3217 32.12 25.8012 32.12C26.2813 32.12 26.5317 32.3284 26.7528 32.5119C26.9646 32.6879 27.1473 32.8398 27.5336 32.8398C27.92 32.8398 28.1027 32.6879 28.3145 32.5119C28.5352 32.3284 28.7859 32.12 29.2658 32.12C29.3485 32.12 29.4155 32.2006 29.4155 32.3C29.4155 32.3993 29.3485 32.4799 29.2658 32.4799C28.8794 32.4799 28.6967 32.6318 28.4849 32.8078C28.2624 32.9914 28.0117 33.1997 27.5321 33.1997Z" fill="black"/>
<path d="M6.91479 27.1016C6.53469 27.1016 6.22559 26.6985 6.22559 26.2029C6.22559 25.7077 6.53469 25.3042 6.91479 25.3042C7.29488 25.3042 7.60399 25.7073 7.60399 26.2029C7.60369 26.6985 7.29458 27.1016 6.91479 27.1016ZM6.91479 25.6645C6.70003 25.6645 6.52511 25.906 6.52511 26.2033C6.52511 26.5006 6.70003 26.7421 6.91479 26.7421C7.12954 26.7421 7.30447 26.5006 7.30447 26.2033C7.30417 25.906 7.12954 25.6645 6.91479 25.6645Z" fill="black"/>
<path d="M8.89318 25.9985C8.51309 25.9985 8.20398 25.5954 8.20398 25.0998C8.20398 24.6045 8.51309 24.201 8.89318 24.201C9.27327 24.201 9.58238 24.6042 9.58238 25.0998C9.58238 25.5954 9.27327 25.9985 8.89318 25.9985ZM8.89318 24.5613C8.67842 24.5613 8.5035 24.8028 8.5035 25.1001C8.5035 25.3974 8.67842 25.6389 8.89318 25.6389C9.10794 25.6389 9.28286 25.3974 9.28286 25.1001C9.28286 24.8028 9.10794 24.5613 8.89318 24.5613Z" fill="black"/>
<path d="M10.8716 24.8953C10.4915 24.8953 10.1824 24.4922 10.1824 23.9966C10.1824 23.5014 10.4915 23.0979 10.8716 23.0979C11.2517 23.0979 11.5608 23.501 11.5608 23.9966C11.5605 24.4922 11.2514 24.8953 10.8716 24.8953ZM10.8716 23.4582C10.6568 23.4582 10.4819 23.6997 10.4819 23.997C10.4819 24.2943 10.6568 24.5358 10.8716 24.5358C11.0863 24.5358 11.2613 24.2943 11.2613 23.997C11.261 23.6997 11.086 23.4582 10.8716 23.4582Z" fill="black"/>
<path d="M12.8498 23.7922C12.4698 23.7922 12.1606 23.3891 12.1606 22.8935C12.1606 22.3982 12.4698 21.9948 12.8498 21.9948C13.2299 21.9948 13.539 22.3979 13.539 22.8935C13.539 23.3891 13.2299 23.7922 12.8498 23.7922ZM12.8498 22.355C12.6351 22.355 12.4602 22.5965 12.4602 22.8938C12.4602 23.1911 12.6351 23.4326 12.8498 23.4326C13.0646 23.4326 13.2395 23.1911 13.2395 22.8938C13.2395 22.5965 13.0646 22.355 12.8498 22.355Z" fill="black"/>
<path d="M34.3888 19.815C34.3011 19.007 34.7689 17.9178 35.8214 16.8638C36.757 15.9153 37.488 15.7396 37.985 15.7396C38.6575 15.7396 38.599 16.6179 38.3066 16.4774C37.9265 16.3017 37.1956 16.4423 36.26 17.2854C35.3244 18.1286 34.9735 18.9718 35.0028 19.5691C35.032 20.3069 35.9384 20.6231 36.9032 20.4825C39.0668 20.2015 43.8325 17.5665 45.9084 16.2315C46.0546 16.1261 46.6686 16.1612 46.2008 16.5477C44.0079 18.234 39.0668 20.6933 37.0786 21.0447C35.7045 21.2906 34.535 21.0095 34.3888 19.815ZM48.7795 20.9393C47.2592 21.0798 46.5867 19.534 47.2007 17.9178C47.7854 16.3017 48.9549 15.6693 49.5689 15.8099C50.1244 15.9153 50.2999 16.4774 50.066 17.2854C49.7151 18.3746 48.6333 19.1475 47.5808 19.5691C47.6977 20.061 48.0778 20.3069 48.6041 20.2718C49.949 20.1312 51.8202 19.007 57.1122 16.2315C57.4923 16.0207 57.58 16.4774 57.3461 16.5828C52.902 18.9367 50.3876 20.7987 48.7795 20.9393ZM47.727 18.1638C47.5808 18.5502 47.5223 18.8664 47.5223 19.1475C48.3702 18.7962 49.3935 17.8124 49.6274 17.0395C49.7151 16.7233 49.6859 16.4071 49.4812 16.3369C49.1596 16.2315 48.224 16.6882 47.727 18.1638ZM59.6617 16.4071C59.7202 16.1261 59.9249 16.1261 60.0711 16.0909C60.2465 16.0909 60.3342 16.1612 60.305 16.4774C60.2465 17.1449 59.8664 18.3746 59.8079 18.6556C59.7787 18.7259 59.8079 18.7962 59.8956 18.7962C59.9834 18.7962 60.8312 18.3043 61.416 17.953C62.2639 17.426 62.8486 17.0395 63.2872 17.0395C63.7258 17.0395 64.0766 17.4611 64.0766 18.1638C64.0181 19.1475 64.0474 19.7448 64.3105 19.7799C64.8368 19.9204 66.7372 19.2178 68.1991 18.48L72.7017 16.2315C72.9648 16.0909 73.111 16.5828 72.7894 16.7585C71.5907 17.4962 69.9241 18.3043 68.3745 19.1124C66.8542 19.8853 64.866 20.6582 63.9889 20.4474C63.3749 20.3069 63.2287 19.5691 63.2872 18.5854C63.3164 18.0584 63.2872 17.8476 63.1995 17.7773C63.0533 17.6719 62.7317 17.8124 62.1762 18.1638C61.7084 18.4448 60.1003 19.4286 59.8372 19.4286C59.6617 19.4286 59.1355 19.1826 59.1355 18.9016C59.1355 18.7259 59.5156 17.5314 59.6617 16.4071ZM74.0232 29.6171C73.6431 29.7225 73.38 28.3172 73.4092 25.7174C73.4677 23.5743 73.9063 16.1963 74.7834 10.5399C74.9881 9.23998 75.1927 8.08059 75.3974 7.0266C69.6961 7.0266 69.1698 7.06174 69.0528 6.53474C68.9944 6.21854 69.813 5.79695 70.0469 5.97261C70.3393 6.18341 70.544 6.28881 71.3918 6.28881L75.5436 6.32394C76.4792 1.82692 77.3563 0 77.7656 0C77.9995 0 78.175 0.843192 78.1165 1.15939C78.0288 1.58099 77.9118 0.983724 77.5902 1.82692C77.5317 1.93232 76.9178 3.86463 76.3622 6.32394C77.3856 6.32394 77.7656 6.42934 80.6602 6.42934C83.35 6.42934 84.0517 6.25368 84.1394 6.64014C84.1979 7.06174 82.7653 7.0266 80.5724 7.0266H76.1868C75.9237 8.29139 75.6605 9.62645 75.4851 10.9264C75.222 12.6479 74.7834 15.7045 74.4033 19.3934C74.1694 21.396 73.877 26.3849 74.0525 28.0713C74.1987 29.4063 74.4326 29.5469 74.0232 29.6171ZM81.8063 20.9393C80.2859 21.0798 79.6135 19.534 80.2274 17.9178C80.8122 16.3017 81.9817 15.6693 82.5957 15.8099C83.1512 15.9153 83.3266 16.4774 83.0927 17.2854C82.7419 18.3746 81.6601 19.1475 80.6075 19.5691C80.7245 20.061 81.1046 20.3069 81.6308 20.2718C82.9758 20.1312 84.847 19.007 90.139 16.2315C90.5191 16.0207 90.6068 16.4774 90.3729 16.5828C85.9288 18.9367 83.4143 20.7987 81.8063 20.9393ZM80.7537 18.1638C80.6075 18.5502 80.5491 18.8664 80.5491 19.1475C81.3969 18.7962 82.4203 17.8124 82.6542 17.0395C82.7419 16.7233 82.7126 16.4071 82.508 16.3369C82.1864 16.2315 81.2508 16.6882 80.7537 18.1638ZM92.6885 16.4071C92.747 16.1261 92.9516 16.1261 93.0978 16.0909C93.2733 16.0909 93.361 16.1612 93.3317 16.4774C93.2733 17.1449 92.8932 18.3746 92.8347 18.6556C92.8054 18.7259 92.8347 18.7962 92.9224 18.7962C93.0101 18.7962 93.858 18.3043 94.4427 17.953C95.2906 17.426 95.8754 17.0395 96.3139 17.0395C96.7525 17.0395 97.1034 17.4611 97.1034 18.1638C97.0449 19.1475 97.0741 19.7448 97.3373 19.7799C97.8635 19.9204 99.764 19.2178 101.226 18.48L105.728 16.2315C105.992 16.0909 106.138 16.5828 105.816 16.7585C104.617 17.4962 102.951 18.3043 101.401 19.1124C99.8809 19.8853 97.8928 20.6582 97.0157 20.4474C96.4017 20.3069 96.2555 19.5691 96.3139 18.5854C96.3432 18.0584 96.314 17.8476 96.2262 17.7773C96.0801 17.6719 95.7584 17.8124 95.2029 18.1638C94.7351 18.4448 93.1271 19.4286 92.8639 19.4286C92.6885 19.4286 92.1622 19.1826 92.1622 18.9016C92.1622 18.7259 92.5423 17.5314 92.6885 16.4071Z" fill="black"/>
<path d="M36.5684 34.7965C37.5852 34.7965 38.669 35.2664 38.669 36.6494C38.669 36.9716 38.4902 37.1193 38.3003 37.1193C38.1103 37.1193 37.9092 36.9582 37.9092 36.6494C37.9092 36.5419 37.8534 35.6692 36.5684 35.6692C35.5516 35.6692 35.1047 36.1526 35.1047 37.3072V40.543C35.1047 41.7111 35.6522 42.0736 36.5684 42.0736C37.4958 42.0736 38.0098 41.6171 38.0098 40.5296C38.0098 40.2208 38.1997 40.0731 38.3785 40.0731C38.5685 40.0731 38.7472 40.2208 38.7472 40.5296C38.7472 42.3422 37.9092 42.9463 36.5684 42.9463C35.1159 42.9463 34.3784 42.3019 34.3784 40.543V37.3072C34.3784 35.4007 35.1717 34.7965 36.5684 34.7965ZM45.4915 40.5564V42.4764C45.4915 42.7718 45.3016 42.9061 45.1228 42.9061C44.9328 42.9061 44.7541 42.7718 44.7541 42.4764V35.2664C44.7541 34.9979 44.877 34.8234 45.1228 34.8234H46.6312C47.0558 34.8234 48.3966 34.971 48.3966 36.7836V38.4619C48.3966 39.4823 48.0837 40.1268 47.3686 40.4088L48.1284 42.2482C48.2849 42.6107 48.0502 42.9061 47.8044 42.9061C47.6703 42.9061 47.5027 42.7987 47.4133 42.5704L46.5977 40.5564H45.4915ZM47.6591 38.4619V36.7836C47.6591 36.4614 47.5586 35.7229 46.6312 35.7229H45.4915V39.6569H46.5306C47.0781 39.6569 47.6591 39.5092 47.6591 38.4619ZM54.4034 40.5296V35.253C54.4034 34.971 54.5934 34.8234 54.7721 34.8234C54.9621 34.8234 55.1409 34.971 55.1409 35.253V40.5296C55.1409 41.4963 55.6884 42.0736 56.4482 42.0736H56.7275C57.5096 42.0736 58.046 41.4157 58.046 40.5296V35.253C58.046 34.971 58.2247 34.8234 58.4147 34.8234C58.5935 34.8234 58.7834 34.971 58.7834 35.253V40.5296C58.7834 41.9125 57.9677 42.9732 56.7275 42.9732H56.4482C55.2079 42.9732 54.4034 41.9394 54.4034 40.5296ZM64.8461 42.4898V35.253C64.8461 34.971 65.0249 34.8234 65.2037 34.8234C65.3824 34.8234 65.5724 34.971 65.5724 35.253V42.4898C65.5724 43.0672 64.8461 43.0672 64.8461 42.4898ZM71.5569 41.7514C71.311 41.2009 71.9368 40.7981 72.2273 41.3486C72.3725 41.6306 72.8083 42.1139 73.501 42.1139C73.7915 42.1139 74.5178 41.8588 74.6184 40.8653C74.6854 40.2611 74.205 39.6703 73.3781 39.1735C72.2161 38.5156 71.3334 37.9383 71.3334 36.7836C71.3334 35.4141 72.2943 34.7697 73.3223 34.7697C74.2497 34.7697 74.7636 35.4544 74.9424 35.8035C75.1994 36.3003 74.6407 36.7836 74.3279 36.3003C74.1714 36.0586 73.8698 35.6558 73.3223 35.6558C72.7077 35.6558 72.0708 36.0049 72.0708 36.7836C72.0708 37.4012 72.6407 37.7503 73.4899 38.2337C74.4843 38.8244 75.5234 39.4018 75.367 40.9727C75.2441 42.2079 74.4619 43.0001 73.501 43.0001C72.7748 43.0001 71.8809 42.5301 71.5569 41.7514ZM81.1839 42.4361V35.2933C81.1839 34.9845 81.385 34.8234 81.5749 34.8234H84.1448C84.3906 34.8234 84.5136 35.0382 84.5136 35.2664C84.5136 35.4947 84.3906 35.7229 84.1448 35.7229H81.9325V38.3277H83.6867C83.9437 38.3277 84.0666 38.5425 84.0666 38.7707C84.0666 38.999 83.9325 39.2407 83.6867 39.2407H81.9325V42.0199H84.1448C84.3795 42.0199 84.5024 42.2482 84.5024 42.463C84.5024 42.6912 84.3795 42.9061 84.1448 42.9061H81.5749C81.385 42.9061 81.1839 42.8255 81.1839 42.4361Z" fill="black"/>
</g>
<defs>
<clipPath id="clip0_13_18">
<rect width="106" height="43" fill="white"/>
</clipPath>
</defs>
</svg>
