<svg width="250" height="88" viewBox="0 0 250 88" fill="none" xmlns="http://www.w3.org/2000/svg">
<path d="M88.32 76.52V52.92L85.08 52.48C84.92 52 84.92 51.52 85.08 51.04L90.56 51.16H106.72L106.76 60.44C106.173 60.5467 105.68 60.5467 105.28 60.44L103.4 53.2H92.6V65.2L99 65.08L99.92 61.16C100.32 61.0533 100.813 61.0533 101.4 61.16C101.293 62.6533 101.24 64.3733 101.24 66.32C101.24 68.1067 101.28 69.84 101.36 71.52C100.88 71.68 100.4 71.68 99.92 71.52L99.04 67.36L92.6 67.24V80.96H104.6L106.48 73.72C106.88 73.6133 107.373 73.6133 107.96 73.72L107.92 83H90.56L84.84 83.12C84.68 82.64 84.68 82.16 84.84 81.68L88.16 81.24C88.2667 79.88 88.32 78.3067 88.32 76.52ZM116.668 80.24C118.215 81.3067 120.388 81.84 123.188 81.84C125.082 81.84 126.495 81.2933 127.428 80.2C128.388 79.1067 128.868 77.8 128.868 76.28C128.868 75.48 128.802 74.8133 128.668 74.28C128.535 73.72 128.242 73.0933 127.788 72.4C127.362 71.7067 126.668 71.0133 125.708 70.32C124.748 69.6267 123.495 68.8933 121.948 68.12C120.135 67.2133 118.668 66.36 117.548 65.56C116.428 64.76 115.588 63.9333 115.028 63.08C114.468 62.2267 114.095 61.4133 113.908 60.64C113.722 59.8667 113.628 58.9067 113.628 57.76C113.628 55.4133 114.562 53.6 116.428 52.32C118.322 51.0133 120.548 50.36 123.108 50.36C126.282 50.36 129.348 51.16 132.308 52.76V60.44C131.402 60.6 130.642 60.6 130.028 60.44L128.748 53.52C127.042 52.5867 125.135 52.12 123.028 52.12C121.615 52.12 120.415 52.5467 119.428 53.4C118.468 54.2267 117.988 55.4 117.988 56.92C117.988 57.7733 118.042 58.44 118.148 58.92C118.255 59.4 118.522 59.9733 118.948 60.64C119.375 61.28 120.082 61.9333 121.068 62.6C122.055 63.24 123.375 63.96 125.028 64.76C130.735 67.5333 133.588 70.84 133.588 74.68C133.588 77.4 132.548 79.6 130.468 81.28C128.388 82.96 125.668 83.8 122.308 83.8C118.975 83.8 115.908 83.0133 113.108 81.44V73.76C114.015 73.6 114.775 73.6 115.388 73.76L116.668 80.24ZM164.121 77.08C164.575 77.3733 164.921 77.88 165.161 78.6C161.455 82.0667 157.695 83.8 153.881 83.8C151.268 83.8 148.988 83.3333 147.041 82.4C145.095 81.44 143.481 80.1867 142.201 78.64C140.921 77.0667 139.961 75.2933 139.321 73.32C138.708 71.32 138.401 69.28 138.401 67.2C138.401 65.0933 138.761 63.04 139.481 61.04C140.201 59.0133 141.255 57.2133 142.641 55.64C144.028 54.04 145.735 52.76 147.761 51.8C149.815 50.84 152.148 50.36 154.761 50.36C158.201 50.36 161.401 51.16 164.361 52.76V60.44C163.881 60.52 163.455 60.56 163.081 60.56C162.681 60.56 162.348 60.52 162.081 60.44L160.801 53.76C159.175 52.6933 157.001 52.16 154.281 52.16C152.601 52.16 151.081 52.5467 149.721 53.32C148.388 54.0667 147.241 55.0933 146.281 56.4C145.348 57.68 144.628 59.2 144.121 60.96C143.615 62.6933 143.361 64.5467 143.361 66.52C143.361 68.6267 143.601 70.5733 144.081 72.36C144.588 74.1467 145.295 75.6933 146.201 77C147.108 78.3067 148.201 79.3333 149.481 80.08C150.788 80.8 152.241 81.16 153.841 81.16C155.761 81.16 157.615 80.7867 159.401 80.04C161.188 79.2933 162.761 78.3067 164.121 77.08ZM171.591 81.24L174.831 81.64C174.938 82.04 174.938 82.5333 174.831 83.12C173.151 83.04 171.738 83 170.591 83C169.951 83 168.511 83.0267 166.271 83.08C166.111 82.6 166.111 82.12 166.271 81.64L168.911 81.16C169.338 80.52 169.871 79.3333 170.511 77.6L180.831 50H182.231L193.831 81.24L197.071 81.64C197.178 82.04 197.178 82.5333 197.071 83.12C195.391 83.04 193.511 83 191.431 83C189.884 83 187.991 83.0267 185.751 83.08C185.591 82.6 185.591 82.12 185.751 81.64L189.071 81.16L185.551 71.28H175.151L171.591 81.24ZM180.471 56.04H180.431C180.111 57.2933 179.591 58.9333 178.871 60.96L175.871 69.28H184.831L181.911 60.96C181.351 59.3333 180.871 57.6933 180.471 56.04ZM198.4 51.04C199.494 51.04 201.227 50.9867 203.6 50.88C206 50.7733 208.174 50.72 210.12 50.72C214.254 50.72 217.2 51.5333 218.96 53.16C220.72 54.76 221.6 57 221.6 59.88C221.6 62.44 220.454 64.5867 218.16 66.32C215.894 68.0533 213.187 68.92 210.04 68.92C208.414 68.92 207.04 68.84 205.92 68.68V81.24L209.56 81.64C209.667 82.04 209.667 82.5333 209.56 83.12C207.88 83.04 205.987 83 203.88 83C202.307 83 200.4 83.0267 198.16 83.08C198 82.6 198 82.12 198.16 81.64L201.48 81.16C201.587 80.1467 201.64 78.5867 201.64 76.48V52.92L198.4 52.52C198.294 52.12 198.294 51.6267 198.4 51.04ZM205.92 57.68V67.04C206.747 67.1467 207.947 67.2 209.52 67.2C210.907 67.2 212.094 66.9733 213.08 66.52C214.094 66.04 214.854 65.4133 215.36 64.64C215.867 63.84 216.227 63.04 216.44 62.24C216.654 61.44 216.76 60.5867 216.76 59.68C216.76 57.36 216.174 55.5733 215 54.32C213.827 53.04 211.867 52.4 209.12 52.4C208.134 52.4 207.147 52.4933 206.16 52.68C206 54.2 205.92 55.8667 205.92 57.68ZM227.89 76.52V52.92L224.65 52.48C224.49 52 224.49 51.52 224.65 51.04L230.13 51.16H246.29L246.33 60.44C245.744 60.5467 245.25 60.5467 244.85 60.44L242.97 53.2H232.17V65.2L238.57 65.08L239.49 61.16C239.89 61.0533 240.384 61.0533 240.97 61.16C240.864 62.6533 240.81 64.3733 240.81 66.32C240.81 68.1067 240.85 69.84 240.93 71.52C240.45 71.68 239.97 71.68 239.49 71.52L238.61 67.36L232.17 67.24V80.96H244.17L246.05 73.72C246.45 73.6133 246.944 73.6133 247.53 73.72L247.49 83H230.13L224.41 83.12C224.25 82.64 224.25 82.16 224.41 81.68L227.73 81.24C227.837 79.88 227.89 78.3067 227.89 76.52Z" fill="white"/>
<path d="M3.87 32H3.09V10.58H14.67V11.33H3.87V21.38H14.1V22.13H3.87V32ZM18.2456 16.16V32H17.4656V16.16H18.2456ZM17.8556 10.37C18.2156 10.37 18.4356 10.47 18.5156 10.67C18.6156 10.85 18.6656 11.06 18.6656 11.3C18.6656 11.56 18.6156 11.78 18.5156 11.96C18.4356 12.14 18.2156 12.23 17.8556 12.23C17.5556 12.23 17.3556 12.14 17.2556 11.96C17.1556 11.78 17.1056 11.56 17.1056 11.3C17.1056 11.06 17.1556 10.85 17.2556 10.67C17.3556 10.47 17.5556 10.37 17.8556 10.37ZM30.2466 15.86C31.9666 15.86 33.2966 16.33 34.2366 17.27C35.1766 18.21 35.6466 19.66 35.6466 21.62V32H34.8666V21.65C34.8666 19.89 34.4566 18.61 33.6366 17.81C32.8366 17.01 31.7066 16.61 30.2466 16.61C28.5266 16.61 27.1266 17.13 26.0466 18.17C24.9866 19.19 24.4566 20.78 24.4566 22.94V32H23.6766V16.16H24.3066L24.4266 19.49H24.4866C24.7266 18.87 25.0766 18.29 25.5366 17.75C26.0166 17.19 26.6366 16.74 27.3966 16.4C28.1766 16.04 29.1266 15.86 30.2466 15.86ZM46.6638 32.3C44.3838 32.3 42.6938 31.62 41.5938 30.26C40.4938 28.9 39.9438 26.94 39.9438 24.38C39.9438 21.64 40.5438 19.54 41.7438 18.08C42.9438 16.6 44.6638 15.86 46.9038 15.86C47.8638 15.86 48.6938 16.03 49.3938 16.37C50.1138 16.69 50.7038 17.13 51.1638 17.69C51.6438 18.25 51.9938 18.88 52.2138 19.58H52.2738C52.2538 18.9 52.2338 18.24 52.2138 17.6C52.2138 16.96 52.2138 16.33 52.2138 15.71V9.2H52.9938V32H52.3338L52.2738 28.61H52.2138C51.9738 29.27 51.6138 29.88 51.1338 30.44C50.6738 31 50.0738 31.45 49.3338 31.79C48.6138 32.13 47.7238 32.3 46.6638 32.3ZM46.6638 31.55C48.6638 31.55 50.0838 30.9 50.9238 29.6C51.7838 28.28 52.2138 26.45 52.2138 24.11V24.02C52.2138 21.62 51.7738 19.79 50.8938 18.53C50.0138 17.25 48.6838 16.61 46.9038 16.61C44.9238 16.61 43.4038 17.26 42.3438 18.56C41.2838 19.84 40.7538 21.78 40.7538 24.38C40.7538 26.78 41.2338 28.58 42.1938 29.78C43.1738 30.96 44.6638 31.55 46.6638 31.55ZM63.457 16.16H64.267L68.377 26.84C68.617 27.48 68.827 28.05 69.007 28.55C69.207 29.05 69.377 29.5 69.517 29.9C69.657 30.28 69.777 30.61 69.877 30.89H69.937C70.097 30.45 70.287 29.91 70.507 29.27C70.747 28.63 71.037 27.86 71.377 26.96L75.547 16.16H76.357L68.887 35.45C68.567 36.31 68.217 37.02 67.837 37.58C67.477 38.16 67.057 38.59 66.577 38.87C66.117 39.15 65.557 39.29 64.897 39.29C64.617 39.29 64.347 39.26 64.087 39.2C63.827 39.16 63.557 39.09 63.277 38.99V38.21C63.557 38.31 63.817 38.39 64.057 38.45C64.297 38.51 64.577 38.54 64.897 38.54C65.417 38.54 65.867 38.42 66.247 38.18C66.627 37.96 66.977 37.59 67.297 37.07C67.617 36.57 67.937 35.9 68.257 35.06L69.487 31.82L63.457 16.16ZM91.7391 24.08C91.7391 25.24 91.5991 26.32 91.3191 27.32C91.0591 28.32 90.6391 29.19 90.0591 29.93C89.4991 30.67 88.7891 31.25 87.9291 31.67C87.0691 32.09 86.0491 32.3 84.8691 32.3C83.7291 32.3 82.7291 32.1 81.8691 31.7C81.0291 31.28 80.3191 30.7 79.7391 29.96C79.1791 29.22 78.7591 28.35 78.4791 27.35C78.1991 26.35 78.0591 25.26 78.0591 24.08C78.0591 22.4 78.3291 20.95 78.8691 19.73C79.4291 18.49 80.2291 17.54 81.2691 16.88C82.3291 16.2 83.5891 15.86 85.0491 15.86C86.6491 15.86 87.9391 16.23 88.9191 16.97C89.8991 17.69 90.6091 18.67 91.0491 19.91C91.5091 21.15 91.7391 22.54 91.7391 24.08ZM78.8691 24.08C78.8691 25.54 79.0891 26.84 79.5291 27.98C79.9691 29.1 80.6291 29.98 81.5091 30.62C82.4091 31.24 83.5291 31.55 84.8691 31.55C86.2691 31.55 87.4091 31.23 88.2891 30.59C89.1891 29.95 89.8491 29.07 90.2691 27.95C90.7091 26.81 90.9291 25.52 90.9291 24.08C90.9291 22.7 90.7291 21.45 90.3291 20.33C89.9491 19.19 89.3291 18.29 88.4691 17.63C87.6091 16.95 86.4691 16.61 85.0491 16.61C83.0691 16.61 81.5391 17.27 80.4591 18.59C79.3991 19.91 78.8691 21.74 78.8691 24.08ZM107.975 16.16V32H107.345L107.225 28.67H107.165C106.945 29.27 106.595 29.85 106.115 30.41C105.635 30.97 105.005 31.43 104.225 31.79C103.465 32.13 102.525 32.3 101.405 32.3C100.225 32.3 99.2349 32.08 98.4349 31.64C97.6349 31.2 97.0249 30.55 96.6049 29.69C96.2049 28.83 96.0049 27.78 96.0049 26.54V16.16H96.7849V26.42C96.7849 28.18 97.1849 29.48 97.9849 30.32C98.7849 31.14 99.9249 31.55 101.405 31.55C102.565 31.55 103.575 31.32 104.435 30.86C105.295 30.4 105.965 29.71 106.445 28.79C106.945 27.85 107.195 26.66 107.195 25.22V16.16H107.975ZM119.082 15.92C119.562 15.92 119.992 15.95 120.372 16.01C120.772 16.07 121.152 16.15 121.512 16.25L121.332 16.97C120.952 16.87 120.592 16.8 120.252 16.76C119.932 16.7 119.542 16.67 119.082 16.67C118.242 16.67 117.522 16.82 116.922 17.12C116.322 17.42 115.822 17.85 115.422 18.41C115.022 18.97 114.722 19.65 114.522 20.45C114.342 21.23 114.252 22.11 114.252 23.09V32H113.472V16.16H114.192L114.252 19.19H114.312C114.512 18.57 114.822 18.02 115.242 17.54C115.662 17.04 116.192 16.65 116.832 16.37C117.492 16.07 118.242 15.92 119.082 15.92ZM145.235 24.08C145.235 25.24 145.095 26.32 144.815 27.32C144.555 28.32 144.135 29.19 143.555 29.93C142.995 30.67 142.285 31.25 141.425 31.67C140.565 32.09 139.545 32.3 138.365 32.3C137.225 32.3 136.225 32.1 135.365 31.7C134.525 31.28 133.815 30.7 133.235 29.96C132.675 29.22 132.255 28.35 131.975 27.35C131.695 26.35 131.555 25.26 131.555 24.08C131.555 22.4 131.825 20.95 132.365 19.73C132.925 18.49 133.725 17.54 134.765 16.88C135.825 16.2 137.085 15.86 138.545 15.86C140.145 15.86 141.435 16.23 142.415 16.97C143.395 17.69 144.105 18.67 144.545 19.91C145.005 21.15 145.235 22.54 145.235 24.08ZM132.365 24.08C132.365 25.54 132.585 26.84 133.025 27.98C133.465 29.1 134.125 29.98 135.005 30.62C135.905 31.24 137.025 31.55 138.365 31.55C139.765 31.55 140.905 31.23 141.785 30.59C142.685 29.95 143.345 29.07 143.765 27.95C144.205 26.81 144.425 25.52 144.425 24.08C144.425 22.7 144.225 21.45 143.825 20.33C143.445 19.19 142.825 18.29 141.965 17.63C141.105 16.95 139.965 16.61 138.545 16.61C136.565 16.61 135.035 17.27 133.955 18.59C132.895 19.91 132.365 21.74 132.365 24.08ZM157.855 20.36C157.775 20.1 157.695 19.86 157.615 19.64C157.555 19.4 157.485 19.18 157.405 18.98C157.345 18.76 157.275 18.53 157.195 18.29C157.135 18.05 157.065 17.8 156.985 17.54H156.925C156.845 17.8 156.765 18.05 156.685 18.29C156.625 18.53 156.555 18.77 156.475 19.01C156.415 19.23 156.345 19.45 156.265 19.67C156.205 19.89 156.135 20.12 156.055 20.36L152.185 32.03H151.525L146.935 16.19H147.805L150.955 27.32C151.135 27.94 151.275 28.45 151.375 28.85C151.475 29.23 151.565 29.57 151.645 29.87C151.725 30.15 151.795 30.45 151.855 30.77H151.915C151.975 30.53 152.035 30.3 152.095 30.08C152.155 29.86 152.215 29.63 152.275 29.39C152.355 29.13 152.445 28.84 152.545 28.52C152.665 28.18 152.795 27.78 152.935 27.32L156.685 16.19H157.315L160.885 27.29C161.045 27.79 161.185 28.25 161.305 28.67C161.425 29.07 161.535 29.44 161.635 29.78C161.735 30.12 161.825 30.45 161.905 30.77H161.965C162.005 30.45 162.055 30.14 162.115 29.84C162.195 29.52 162.285 29.16 162.385 28.76C162.505 28.36 162.635 27.88 162.775 27.32L165.745 16.19H166.525L162.295 32.03H161.635L157.855 20.36ZM176.262 15.86C177.982 15.86 179.312 16.33 180.252 17.27C181.192 18.21 181.662 19.66 181.662 21.62V32H180.882V21.65C180.882 19.89 180.472 18.61 179.652 17.81C178.852 17.01 177.722 16.61 176.262 16.61C174.542 16.61 173.142 17.13 172.062 18.17C171.002 19.19 170.472 20.78 170.472 22.94V32H169.692V16.16H170.322L170.442 19.49H170.502C170.742 18.87 171.092 18.29 171.552 17.75C172.032 17.19 172.652 16.74 173.412 16.4C174.192 16.04 175.142 15.86 176.262 15.86Z" fill="white"/>
</svg>
