<svg width="35" height="22" viewBox="0 0 35 22" fill="none" xmlns="http://www.w3.org/2000/svg">
<path fill-rule="evenodd" clip-rule="evenodd" d="M2.53846 16.9231C3.94042 16.9231 5.07692 18.0596 5.07692 19.4615C5.07692 20.8635 3.94042 22 2.53846 22C1.13651 22 0 20.8635 0 19.4615C0 18.0596 1.13651 16.9231 2.53846 16.9231ZM32.9985 17.7692C33.934 17.7692 34.6923 18.5204 34.6923 19.4615C34.6923 20.3962 33.9399 21.1538 32.9985 21.1538H9.30917C8.37372 21.1538 7.61539 20.4027 7.61539 19.4615C7.61539 18.5269 8.36784 17.7692 9.30917 17.7692H32.9985ZM2.53846 8.46154C3.94042 8.46154 5.07692 9.59805 5.07692 11C5.07692 12.402 3.94042 13.5385 2.53846 13.5385C1.13651 13.5385 0 12.402 0 11C0 9.59805 1.13651 8.46154 2.53846 8.46154ZM32.9985 9.30769C33.934 9.30769 34.6923 10.0588 34.6923 11C34.6923 11.9346 33.9399 12.6923 32.9985 12.6923H9.30917C8.37372 12.6923 7.61539 11.9412 7.61539 11C7.61539 10.0654 8.36784 9.30769 9.30917 9.30769H32.9985ZM2.53846 0C3.94042 0 5.07692 1.13651 5.07692 2.53846C5.07692 3.94042 3.94042 5.07692 2.53846 5.07692C1.13651 5.07692 0 3.94042 0 2.53846C0 1.13651 1.13651 0 2.53846 0ZM32.9985 0.846154C33.934 0.846154 34.6923 1.59731 34.6923 2.53846C34.6923 3.4731 33.9399 4.23077 32.9985 4.23077H9.30917C8.37372 4.23077 7.61539 3.47961 7.61539 2.53846C7.61539 1.60383 8.36784 0.846154 9.30917 0.846154H32.9985Z" fill="white"/>
</svg>
