<svg width="24" height="22" viewBox="0 0 24 22" fill="none" xmlns="http://www.w3.org/2000/svg">
<g id="&#240;&#159;&#166;&#134; icon &#34;heart&#34;">
<path id="Vector" d="M0 7.06431C0 12.0468 4.31419 16.9474 11.1178 21.1579C11.3836 21.31 11.7462 21.4737 12 21.4737C12.2538 21.4737 12.6163 21.31 12.8701 21.1579C19.6858 16.9474 24 12.0468 24 7.06431C24 2.92399 21.0634 0 17.148 0C14.9003 0 13.0876 1.02924 12 2.60816C10.9124 1.04092 9.08759 0 6.85197 0C2.93659 0 0 2.92399 0 7.06431ZM1.94565 7.06431C1.94565 3.95323 4.02417 1.88302 6.82778 1.88302C9.09971 1.88302 10.3927 3.25145 11.1782 4.42107C11.5045 4.88891 11.71 5.01756 12 5.01756C12.29 5.01756 12.4713 4.87718 12.8217 4.42107C13.6435 3.27486 14.9124 1.88302 17.1722 1.88302C19.9758 1.88302 22.0544 3.95323 22.0544 7.06431C22.0544 11.4152 17.3051 16.1053 12.2417 19.3567C12.1208 19.4386 12.0483 19.4971 12 19.4971C11.9516 19.4971 11.8671 19.4386 11.7462 19.3567C6.69486 16.1053 1.94565 11.4152 1.94565 7.06431Z" fill="black"/>
</g>
</svg>
