<svg width="32" height="32" viewBox="0 0 32 32" fill="none" xmlns="http://www.w3.org/2000/svg">
<path d="M23.0666 32C25.827 32 27.6514 31.2311 29.2694 29.3661C29.3964 29.2352 29.5075 29.0879 29.6342 28.9571C30.5861 27.861 31.0303 26.7812 31.0303 25.7506C31.0303 24.5727 30.3643 23.4765 28.9522 22.4623L24.3357 19.1576C22.9079 18.1434 21.2422 18.0288 19.9096 19.3867L18.6881 20.6464C18.3232 21.0226 18.0059 21.039 17.641 20.8099C16.8002 20.2537 15.071 18.6995 13.897 17.4889C12.6596 16.2293 11.454 14.8223 10.8353 13.7916C10.6132 13.4153 10.6448 13.1045 11.0097 12.7282L12.2154 11.4685C13.548 10.0943 13.437 8.36019 12.4534 6.9042L9.23296 2.14353C8.26523 0.687467 7.20234 0.0167446 6.06011 0.000411058C5.06064 -0.0159923 4.01366 0.458448 2.95076 1.44C2.80794 1.57094 2.68103 1.68542 2.53827 1.79996C0.745644 3.46864 0 5.35 0 8.18024C0 12.8591 2.7921 18.5523 7.91624 23.8365C13.0086 29.0879 18.5452 32 23.0666 32ZM23.0825 29.4806C19.0371 29.5624 13.8494 26.3559 9.74061 22.1351C5.60004 17.8815 2.34787 12.352 2.4272 8.18024C2.45894 6.38069 3.06177 4.82649 4.31507 3.71406C4.41024 3.61585 4.50547 3.53404 4.61648 3.4523C5.07655 3.02693 5.60004 2.79792 6.04428 2.79792C6.52018 2.79792 6.93267 2.97786 7.23408 3.46864L10.3118 8.22931C10.6448 8.73649 10.6766 9.30907 10.1848 9.81618L8.78872 11.2558C7.67825 12.3847 7.77342 13.7589 8.56671 14.855C9.47095 16.1147 11.0415 17.947 12.2471 19.1904C13.4687 20.45 15.3883 22.2169 16.6098 23.1658C17.6728 23.9837 19.0212 24.0655 20.1158 22.9367L21.5118 21.497C22.0037 20.9899 22.5431 21.0226 23.0348 21.3498L27.6514 24.5236C28.1273 24.8508 28.3176 25.2598 28.3176 25.7506C28.3176 26.225 28.0955 26.7486 27.6672 27.2393C27.5879 27.3539 27.5244 27.4356 27.4292 27.5502C26.3346 28.8262 24.8275 29.4479 23.0825 29.4806Z" fill="white"/>
</svg>
